# xmcd
#
# Track frame offsets:
#	225
#	13724
#	33587
#	52719
#	68368
#	83270
#	97669
#	115182
#	131976
#	148603
#	170543
#	185628
#	203139
#	220372
#
# Disc length: 3160 seconds
# Revision: 0
# Processed by: cddbd v1.5.2PL0 Copyright (c) Steve Scherf et al.
# Submitted via: dBpowerAMP V12.0
#
DISCID=b80c550e
DTITLE=Sue James - 5 Stars and the Moon
DYEAR=1997
DGENRE=Country
TTITLE0=Cold Hard Fax
TTITLE1=These Hands of Mine
TTITLE2=Where Were You Last Night
TTITLE3=Distance Between two Hearts
TTITLE4=Nothing Works Without You
TTITLE5=Five Stars and the Moon
TTITLE6=I Dream In Black and White
TTITLE7=Every Beat Of My Foolish Heart
TTITLE8=A Single Tear
TTITLE9=Love's White Heat
TTITLE10=Where Your Road Leads
TTITLE11=Call 911
TTITLE12=Standing Outside The Fire
TTITLE13=Love Is Worth Anything
EXTD=
EXTT0=
EXTT1=
EXTT2=
EXTT3=
EXTT4=
EXTT5=
EXTT6=
EXTT7=
EXTT8=
EXTT9=
EXTT10=
EXTT11=
EXTT12=
EXTT13=
PLAYORDER=
